<svg width="100" height="100" viewBox="0 0 100 100" fill="none" xmlns="http://www.w3.org/2000/svg">
    <rect width="100" height="100" fill="transparent"/>

    <g id="gear">
        <circle cx="35" cy="65" r="15" fill="#C67C00"/>
        <path d="M49.44 60.14L54.7 57.04C55.76 56.41 55.76 54.89 54.7 54.26L49.44 51.16C48.38 50.53 47.08 51.36 47.08 52.61V59.49C47.08 60.74 48.38 61.57 49.44 60.94Z" fill="#8B4513"/>
        <path d="M49.44 69.86L54.7 72.96C55.76 73.59 55.76 75.11 54.7 75.74L49.44 78.84C48.38 79.47 47.08 78.64 47.08 77.39V70.51C47.08 69.26 48.38 68.43 49.44 69.06Z" fill="#8B4513"/>
        <path d="M20.56 60.14L15.3 57.04C14.24 56.41 14.24 54.89 15.3 54.26L20.56 51.16C21.62 50.53 22.92 51.36 22.92 52.61V59.49C22.92 60.74 21.62 61.57 20.56 60.94Z" fill="#8B4513"/>
        <path d="M20.56 69.86L15.3 72.96C14.24 73.59 14.24 75.11 15.3 75.74L20.56 78.84C21.62 79.47 22.92 78.64 22.92 77.39V70.51C22.92 69.26 21.62 68.43 20.56 69.06Z" fill="#8B4513"/>
        <path d="M35 84C36.38 84 37.5 82.88 37.5 81.5V74C37.5 72.62 36.38 71.5 35 71.5C33.62 71.5 32.5 72.62 32.5 74V81.5C32.5 82.88 33.62 84 35 84Z" fill="#8B4513"/>
        <path d="M35 48.5C36.38 48.5 37.5 47.38 37.5 46V38.5C37.5 37.12 36.38 36 35 36C33.62 36 32.5 37.12 32.5 38.5V46C32.5 47.38 33.62 48.5 35 48.5Z" fill="#8B4513"/>
    </g>

    <g id="invoice">
        <rect x="39" y="16" width="45" height="60" rx="3" fill="#FFC300" stroke="#8B4513" stroke-width="2"/>
        <path d="M78 16L84 22V16H78Z" fill="#8B4513"/>

        <rect x="45" y="30" width="30" height="3" rx="1.5" fill="#8B4513"/>
        <rect x="45" y="38" width="25" height="3" rx="1.5" fill="#8B4513"/>
        <rect x="45" y="46" width="35" height="3" rx="1.5" fill="#8B4513"/>
        <rect x="45" y="54" width="28" height="3" rx="1.5" fill="#8B4513"/>

        <text x="45" y="24" font-family="Arial, sans-serif" font-size="10" fill="#228B22" font-weight="bold">PLN</text>

        <path d="M50 63 L55 68 L65 58" stroke="#228B22" stroke-width="4" stroke-linecap="round" fill="none"/>
    </g>

</svg>